<svg xmlns="http://www.w3.org/2000/svg" xmlns:xlink="http://www.w3.org/1999/xlink" width="500" zoomAndPan="magnify" viewBox="0 0 375 374.999991" height="500" preserveAspectRatio="xMidYMid meet" version="1.0"><defs><clipPath id="id1"><path d="M 0 153.582031 L 169 153.582031 L 169 322 L 0 322 Z M 0 153.582031 " clip-rule="nonzero"/></clipPath><clipPath id="id2"><path d="M 205.25 50.339844 L 374.75 50.339844 L 374.75 219.839844 L 205.25 219.839844 Z M 205.25 50.339844 " clip-rule="nonzero"/></clipPath><clipPath id="id3"><path d="M 236.378906 81.46875 L 281 81.46875 L 281 126 L 236.378906 126 Z M 236.378906 81.46875 " clip-rule="nonzero"/></clipPath><clipPath id="id4"><path d="M 267 112 L 343.628906 112 L 343.628906 188.71875 L 267 188.71875 Z M 267 112 " clip-rule="nonzero"/></clipPath></defs><path fill="#184d47" d="M 29.964844 168.722656 L 11.636719 61.449219 L 113.707031 99.210938 L 29.964844 168.722656 L 11.636719 61.449219 L 113.707031 99.210938 L 29.964844 168.722656 " fill-opacity="1" fill-rule="nonzero"/><path fill="#184d47" d="M 363.300781 178.789062 C 363.300781 178.789062 363.164062 177.144531 362.914062 174.046875 C 362.734375 170.949219 362.167969 166.441406 361.296875 160.773438 C 361.035156 159.359375 360.757812 157.867188 360.464844 156.304688 C 360.328125 155.53125 360.175781 154.730469 360.039062 153.914062 C 359.84375 153.109375 359.652344 152.28125 359.441406 151.4375 C 359.042969 149.75 358.640625 148.007812 358.210938 146.199219 C 357.6875 144.414062 357.160156 142.5625 356.609375 140.640625 C 354.296875 133.035156 351.1875 124.613281 346.914062 115.902344 C 342.625 107.203125 337.191406 98.203125 330.484375 89.476562 C 323.773438 80.765625 315.808594 72.316406 306.75 64.671875 C 302.253906 60.8125 297.375 57.285156 292.378906 53.871094 C 287.277344 50.59375 282.050781 47.414062 276.546875 44.703125 C 265.578125 39.171875 253.878906 34.84375 241.871094 32.164062 C 229.882812 29.449219 217.683594 28.09375 205.71875 28.320312 C 204.226562 28.375 202.734375 28.421875 201.253906 28.476562 L 199.027344 28.546875 L 198.886719 28.550781 C 199.761719 28.542969 199.054688 28.554688 199.207031 28.554688 L 198.902344 28.585938 L 198.292969 28.636719 L 197.089844 28.742188 C 195.484375 28.882812 193.882812 29.019531 192.277344 29.160156 L 189.886719 29.371094 L 188.683594 29.472656 C 188.308594 29.519531 187.992188 29.589844 187.644531 29.644531 C 184.921875 30.089844 182.210938 30.527344 179.527344 30.972656 C 176.746094 31.597656 173.996094 32.21875 171.257812 32.839844 C 160.386719 35.605469 150.304688 39.492188 141.246094 44.027344 C 140.125 44.605469 139.003906 45.1875 137.898438 45.753906 C 136.792969 46.335938 135.671875 46.859375 134.632812 47.523438 C 132.53125 48.78125 130.46875 50.027344 128.421875 51.246094 C 126.445312 52.53125 124.550781 53.898438 122.65625 55.171875 C 120.746094 56.402344 119.003906 57.828125 117.289062 59.179688 C 116.417969 59.859375 115.574219 60.523438 114.730469 61.171875 C 114.304688 61.503906 113.886719 61.824219 113.472656 62.15625 L 112.296875 63.207031 C 110.734375 64.589844 109.214844 65.941406 107.734375 67.257812 C 106.226562 68.542969 104.941406 70.007812 103.597656 71.308594 C 102.933594 71.972656 102.285156 72.621094 101.632812 73.257812 C 100.984375 73.894531 100.363281 74.542969 99.796875 75.222656 C 95.066406 80.433594 91.277344 85.230469 88.371094 89.3125 C 86.960938 91.386719 85.703125 93.222656 84.597656 94.828125 C 83.601562 96.488281 82.757812 97.898438 82.066406 99.046875 C 80.683594 101.339844 79.960938 102.558594 79.960938 102.558594 L 79.394531 103.484375 C 72.796875 114.476562 58.511719 118.042969 47.515625 111.433594 C 36.507812 104.824219 32.953125 90.542969 39.566406 79.550781 C 39.980469 78.84375 40.464844 78.140625 40.949219 77.488281 C 40.949219 77.488281 42.082031 75.980469 44.226562 73.160156 C 45.304688 71.765625 46.605469 70.023438 48.179688 68.015625 C 49.855469 66.082031 51.761719 63.855469 53.90625 61.367188 C 58.277344 56.484375 63.863281 50.800781 70.695312 44.816406 C 71.527344 44.039062 72.410156 43.292969 73.339844 42.574219 C 74.25 41.84375 75.175781 41.09375 76.117188 40.347656 C 78.011719 38.867188 79.878906 37.238281 81.96875 35.785156 C 84.042969 34.320312 86.171875 32.8125 88.34375 31.277344 C 88.882812 30.902344 89.421875 30.515625 89.976562 30.128906 C 90.558594 29.773438 91.125 29.414062 91.703125 29.054688 C 92.867188 28.339844 94.027344 27.617188 95.203125 26.886719 C 97.570312 25.433594 99.949219 23.917969 102.535156 22.609375 C 105.078125 21.257812 107.636719 19.835938 110.304688 18.503906 C 113.015625 17.269531 115.753906 16.007812 118.550781 14.730469 C 119.933594 14.066406 121.382812 13.535156 122.851562 12.972656 C 124.300781 12.417969 125.753906 11.855469 127.234375 11.289062 C 139.058594 6.929688 151.921875 3.566406 165.390625 1.691406 C 168.78125 1.316406 172.183594 0.941406 175.597656 0.554688 C 179.179688 0.386719 182.777344 0.214844 186.398438 0.0429688 C 186.84375 0.03125 187.328125 0 187.742188 0 L 188.929688 0.0273438 L 191.335938 0.0820312 C 192.941406 0.117188 194.558594 0.152344 196.164062 0.1875 L 199.054688 0.25 L 201.695312 0.441406 C 203.4375 0.574219 205.195312 0.707031 206.953125 0.84375 C 220.988281 2.132812 235.011719 5.277344 248.386719 9.910156 C 261.800781 14.507812 274.46875 20.882812 286.003906 28.394531 C 291.8125 32.09375 297.222656 36.253906 302.421875 40.472656 C 307.511719 44.84375 312.40625 49.28125 316.832031 54.023438 C 325.765625 63.414062 333.277344 73.394531 339.375 83.433594 C 345.460938 93.472656 350.121094 103.539062 353.566406 113.066406 C 357.023438 122.621094 359.261719 131.625 360.769531 139.644531 C 361.117188 141.648438 361.449219 143.597656 361.78125 145.464844 C 362 147.359375 362.222656 149.183594 362.445312 150.925781 C 362.554688 151.796875 362.652344 152.65625 362.761719 153.5 C 362.816406 154.328125 362.886719 155.15625 362.941406 155.960938 C 363.054688 157.5625 363.164062 159.097656 363.273438 160.550781 C 363.523438 166.386719 363.59375 170.933594 363.441406 174.03125 C 363.34375 177.128906 363.300781 178.789062 363.300781 178.789062 " fill-opacity="1" fill-rule="nonzero"/><path fill="#184d47" d="M 344.964844 206.292969 L 363.300781 313.550781 L 261.222656 275.789062 L 344.964844 206.292969 L 363.300781 313.550781 L 261.222656 275.789062 L 344.964844 206.292969 " fill-opacity="1" fill-rule="nonzero"/><path fill="#184d47" d="M 11.636719 196.210938 C 11.636719 196.210938 11.765625 197.855469 12.011719 200.953125 C 12.195312 204.050781 12.761719 208.574219 13.640625 214.226562 C 13.898438 215.652344 14.167969 217.132812 14.460938 218.695312 C 14.601562 219.484375 14.753906 220.269531 14.902344 221.085938 C 15.09375 221.902344 15.285156 222.71875 15.480469 223.5625 C 15.878906 225.234375 16.296875 226.992188 16.722656 228.800781 C 17.242188 230.601562 17.769531 232.453125 18.324219 234.359375 C 20.636719 241.964844 23.742188 250.375 28.023438 259.097656 C 32.304688 267.796875 37.738281 276.796875 44.445312 285.523438 C 51.15625 294.246094 59.121094 302.683594 68.179688 310.328125 C 72.675781 314.1875 77.554688 317.710938 82.550781 321.140625 C 87.652344 324.40625 92.878906 327.585938 98.398438 330.296875 C 109.351562 335.828125 121.039062 340.15625 133.058594 342.835938 C 145.046875 345.5625 157.246094 346.917969 169.210938 346.679688 C 170.703125 346.625 172.183594 346.570312 173.675781 346.53125 L 175.890625 346.445312 L 176.042969 346.445312 C 175.167969 346.460938 175.890625 346.445312 175.722656 346.445312 L 176.636719 346.363281 L 177.839844 346.253906 L 182.652344 345.839844 L 185.042969 345.628906 L 186.234375 345.519531 C 186.621094 345.492188 186.9375 345.410156 187.285156 345.355469 C 190.007812 344.910156 192.707031 344.46875 195.402344 344.027344 C 198.183594 343.40625 200.933594 342.78125 203.675781 342.160156 C 214.542969 339.394531 224.625 335.507812 233.683594 330.972656 C 234.804688 330.394531 235.925781 329.8125 237.03125 329.246094 C 238.140625 328.679688 239.257812 328.140625 240.296875 327.476562 C 242.398438 326.21875 244.460938 324.972656 246.507812 323.753906 C 248.496094 322.46875 250.378906 321.101562 252.273438 319.828125 C 254.183594 318.597656 255.925781 317.171875 257.640625 315.820312 C 258.496094 315.140625 259.355469 314.476562 260.199219 313.828125 C 260.625 313.496094 261.042969 313.164062 261.457031 312.847656 L 262.632812 311.792969 C 264.195312 310.414062 265.714844 309.058594 267.210938 307.742188 C 268.703125 306.445312 269.988281 304.992188 271.332031 303.691406 C 271.996094 303.027344 272.660156 302.378906 273.296875 301.726562 C 273.945312 301.105469 274.566406 300.457031 275.132812 299.777344 C 279.863281 294.566406 283.652344 289.769531 286.558594 285.6875 C 287.96875 283.613281 289.242188 281.777344 290.332031 280.171875 C 291.328125 278.511719 292.171875 277.089844 292.863281 275.953125 C 294.234375 273.660156 294.96875 272.441406 294.96875 272.441406 L 295.519531 271.515625 C 302.144531 260.523438 316.417969 256.96875 327.414062 263.566406 C 338.421875 270.175781 341.976562 284.445312 335.378906 295.449219 C 334.9375 296.15625 334.464844 296.859375 333.980469 297.511719 C 333.980469 297.511719 332.835938 299.019531 330.703125 301.839844 C 329.625 303.234375 328.339844 304.976562 326.75 306.984375 C 325.089844 308.917969 323.167969 311.144531 321.023438 313.632812 C 316.652344 318.527344 311.066406 324.199219 304.234375 330.183594 C 303.402344 330.972656 302.519531 331.707031 301.589844 332.425781 C 300.679688 333.160156 299.753906 333.90625 298.8125 334.652344 C 296.902344 336.132812 295.050781 337.761719 292.960938 339.214844 C 290.902344 340.679688 288.769531 342.1875 286.585938 343.722656 C 286.046875 344.109375 285.492188 344.484375 284.953125 344.871094 C 284.386719 345.230469 283.804688 345.589844 283.226562 345.949219 C 282.078125 346.652344 280.902344 347.386719 279.726562 348.105469 C 277.359375 349.570312 274.980469 351.078125 272.394531 352.390625 C 269.851562 353.734375 267.292969 355.171875 264.625 356.5 C 261.925781 357.730469 259.175781 358.988281 256.378906 360.273438 C 254.996094 360.9375 253.53125 361.464844 252.078125 362.03125 C 250.628906 362.582031 249.175781 363.136719 247.695312 363.71875 C 235.882812 368.074219 223.007812 371.433594 209.539062 373.3125 C 206.164062 373.6875 202.746094 374.058594 199.332031 374.445312 C 195.75 374.613281 192.152344 374.777344 188.53125 374.957031 C 188.085938 374.972656 187.601562 375 187.1875 375 L 186 374.972656 L 183.59375 374.917969 C 181.988281 374.890625 180.382812 374.847656 178.765625 374.804688 L 175.863281 374.75 L 173.234375 374.558594 C 171.492188 374.433594 169.734375 374.292969 167.976562 374.15625 C 153.941406 372.871094 139.917969 369.71875 126.542969 365.085938 C 113.140625 360.496094 100.460938 354.121094 88.925781 346.613281 C 83.117188 342.90625 77.707031 338.746094 72.507812 334.527344 C 67.417969 330.15625 62.523438 325.71875 58.097656 320.976562 C 49.175781 311.601562 41.640625 301.605469 35.566406 291.566406 C 29.460938 281.527344 24.8125 271.460938 21.351562 261.933594 C 17.902344 252.378906 15.671875 243.375 14.164062 235.355469 C 13.816406 233.351562 13.484375 231.402344 13.15625 229.535156 C 12.925781 227.640625 12.699219 225.816406 12.488281 224.074219 C 12.378906 223.203125 12.273438 222.34375 12.171875 221.515625 C 12.105469 220.671875 12.050781 219.84375 11.984375 219.039062 C 11.871094 217.4375 11.765625 215.902344 11.65625 214.449219 C 11.402344 208.628906 11.335938 204.066406 11.488281 200.96875 C 11.582031 197.871094 11.636719 196.210938 11.636719 196.210938 " fill-opacity="1" fill-rule="nonzero"/><g clip-path="url(#id1)"><path fill="#c0e7aa" d="M 84.65625 153.582031 C 83.273438 153.582031 81.894531 153.617188 80.515625 153.683594 C 79.136719 153.753906 77.761719 153.855469 76.390625 153.988281 C 75.015625 154.125 73.644531 154.292969 72.28125 154.496094 C 70.914062 154.695312 69.554688 154.933594 68.203125 155.199219 C 66.847656 155.46875 65.503906 155.769531 64.164062 156.105469 C 62.824219 156.441406 61.496094 156.808594 60.175781 157.207031 C 58.855469 157.609375 57.542969 158.039062 56.246094 158.503906 C 54.945312 158.96875 53.65625 159.464844 52.382812 159.988281 C 51.105469 160.515625 49.847656 161.074219 48.597656 161.664062 C 47.351562 162.253906 46.117188 162.871094 44.902344 163.523438 C 43.683594 164.171875 42.484375 164.851562 41.300781 165.558594 C 40.117188 166.265625 38.949219 167.003906 37.800781 167.769531 C 36.65625 168.53125 35.527344 169.324219 34.417969 170.148438 C 33.308594 170.96875 32.222656 171.8125 31.15625 172.6875 C 30.089844 173.5625 29.042969 174.460938 28.019531 175.386719 C 27 176.3125 26 177.261719 25.023438 178.234375 C 24.046875 179.207031 23.097656 180.207031 22.167969 181.226562 C 21.242188 182.246094 20.339844 183.289062 19.464844 184.355469 C 18.589844 185.417969 17.742188 186.503906 16.917969 187.613281 C 16.097656 188.71875 15.300781 189.84375 14.535156 190.988281 C 13.769531 192.132812 13.03125 193.296875 12.320312 194.480469 C 11.613281 195.660156 10.929688 196.859375 10.28125 198.074219 C 9.628906 199.289062 9.011719 200.519531 8.417969 201.761719 C 7.828125 203.007812 7.269531 204.265625 6.742188 205.539062 C 6.214844 206.8125 5.71875 208.097656 5.253906 209.394531 C 4.789062 210.691406 4.355469 212 3.953125 213.316406 C 3.554688 214.632812 3.1875 215.960938 2.851562 217.296875 C 2.515625 218.632812 2.210938 219.976562 1.941406 221.328125 C 1.675781 222.679688 1.4375 224.035156 1.234375 225.398438 C 1.03125 226.761719 0.863281 228.128906 0.730469 229.5 C 0.59375 230.871094 0.492188 232.242188 0.425781 233.617188 C 0.355469 234.996094 0.324219 236.371094 0.324219 237.75 C 0.324219 239.125 0.355469 240.503906 0.425781 241.878906 C 0.492188 243.253906 0.59375 244.625 0.730469 245.996094 C 0.863281 247.367188 1.03125 248.734375 1.234375 250.097656 C 1.4375 251.460938 1.675781 252.816406 1.941406 254.167969 C 2.210938 255.519531 2.515625 256.863281 2.851562 258.199219 C 3.1875 259.535156 3.554688 260.863281 3.953125 262.179688 C 4.355469 263.496094 4.789062 264.804688 5.253906 266.101562 C 5.71875 267.398438 6.214844 268.683594 6.742188 269.957031 C 7.269531 271.230469 7.828125 272.488281 8.417969 273.734375 C 9.011719 274.976562 9.628906 276.207031 10.28125 277.421875 C 10.929688 278.636719 11.613281 279.835938 12.320312 281.015625 C 13.03125 282.199219 13.769531 283.363281 14.535156 284.507812 C 15.300781 285.652344 16.097656 286.777344 16.917969 287.886719 C 17.742188 288.992188 18.589844 290.078125 19.464844 291.140625 C 20.339844 292.207031 21.242188 293.25 22.167969 294.269531 C 23.097656 295.289062 24.046875 296.289062 25.023438 297.261719 C 26 298.234375 27 299.183594 28.019531 300.109375 C 29.042969 301.035156 30.089844 301.933594 31.15625 302.808594 C 32.222656 303.683594 33.308594 304.527344 34.417969 305.351562 C 35.527344 306.171875 36.65625 306.964844 37.800781 307.726562 C 38.949219 308.492188 40.117188 309.230469 41.300781 309.9375 C 42.484375 310.648438 43.683594 311.324219 44.902344 311.976562 C 46.117188 312.625 47.351562 313.242188 48.597656 313.832031 C 49.847656 314.421875 51.105469 314.980469 52.382812 315.507812 C 53.65625 316.03125 54.945312 316.527344 56.246094 316.992188 C 57.542969 317.457031 58.855469 317.890625 60.175781 318.289062 C 61.496094 318.6875 62.824219 319.054688 64.164062 319.390625 C 65.503906 319.726562 66.847656 320.027344 68.203125 320.296875 C 69.554688 320.5625 70.914062 320.800781 72.28125 321 C 73.644531 321.203125 75.015625 321.371094 76.390625 321.507812 C 77.761719 321.640625 79.136719 321.742188 80.515625 321.8125 C 81.894531 321.878906 83.273438 321.914062 84.65625 321.914062 C 86.035156 321.914062 87.414062 321.878906 88.792969 321.8125 C 90.171875 321.742188 91.546875 321.640625 92.921875 321.507812 C 94.292969 321.371094 95.664062 321.203125 97.027344 321 C 98.394531 320.800781 99.753906 320.5625 101.105469 320.296875 C 102.460938 320.027344 103.808594 319.726562 105.144531 319.390625 C 106.484375 319.054688 107.8125 318.6875 109.136719 318.289062 C 110.457031 317.890625 111.765625 317.457031 113.066406 316.992188 C 114.363281 316.527344 115.652344 316.03125 116.925781 315.507812 C 118.203125 314.980469 119.464844 314.421875 120.710938 313.832031 C 121.957031 313.242188 123.191406 312.625 124.410156 311.976562 C 125.625 311.324219 126.824219 310.648438 128.011719 309.9375 C 129.195312 309.230469 130.359375 308.492188 131.507812 307.726562 C 132.65625 306.964844 133.78125 306.171875 134.890625 305.351562 C 136 304.527344 137.085938 303.683594 138.152344 302.808594 C 139.222656 301.933594 140.265625 301.035156 141.289062 300.109375 C 142.3125 299.183594 143.308594 298.234375 144.285156 297.261719 C 145.261719 296.289062 146.214844 295.289062 147.140625 294.269531 C 148.066406 293.25 148.96875 292.207031 149.84375 291.140625 C 150.71875 290.078125 151.570312 288.992188 152.390625 287.886719 C 153.210938 286.777344 154.007812 285.652344 154.773438 284.507812 C 155.539062 283.363281 156.277344 282.199219 156.988281 281.015625 C 157.699219 279.835938 158.378906 278.636719 159.027344 277.421875 C 159.679688 276.207031 160.300781 274.976562 160.890625 273.734375 C 161.480469 272.488281 162.039062 271.230469 162.566406 269.957031 C 163.09375 268.683594 163.59375 267.398438 164.058594 266.101562 C 164.523438 264.804688 164.953125 263.496094 165.355469 262.179688 C 165.757812 260.863281 166.125 259.535156 166.460938 258.199219 C 166.792969 256.863281 167.097656 255.519531 167.367188 254.167969 C 167.636719 252.816406 167.871094 251.460938 168.074219 250.097656 C 168.277344 248.734375 168.445312 247.367188 168.582031 245.996094 C 168.714844 244.625 168.816406 243.253906 168.886719 241.878906 C 168.953125 240.503906 168.988281 239.125 168.988281 237.75 C 168.988281 236.371094 168.953125 234.996094 168.886719 233.617188 C 168.816406 232.242188 168.714844 230.871094 168.582031 229.5 C 168.445312 228.128906 168.277344 226.761719 168.074219 225.398438 C 167.871094 224.035156 167.636719 222.679688 167.367188 221.328125 C 167.097656 219.976562 166.792969 218.632812 166.460938 217.296875 C 166.125 215.960938 165.757812 214.632812 165.355469 213.316406 C 164.953125 212 164.523438 210.691406 164.058594 209.394531 C 163.59375 208.097656 163.09375 206.8125 162.566406 205.539062 C 162.039062 204.265625 161.480469 203.007812 160.890625 201.761719 C 160.300781 200.519531 159.679688 199.289062 159.027344 198.074219 C 158.378906 196.859375 157.699219 195.660156 156.988281 194.480469 C 156.277344 193.296875 155.539062 192.132812 154.773438 190.988281 C 154.007812 189.84375 153.210938 188.71875 152.390625 187.613281 C 151.570312 186.503906 150.71875 185.417969 149.84375 184.355469 C 148.96875 183.289062 148.066406 182.246094 147.140625 181.226562 C 146.214844 180.207031 145.261719 179.207031 144.285156 178.234375 C 143.308594 177.261719 142.3125 176.3125 141.289062 175.386719 C 140.265625 174.460938 139.222656 173.5625 138.152344 172.6875 C 137.085938 171.8125 136 170.96875 134.890625 170.148438 C 133.78125 169.324219 132.65625 168.53125 131.507812 167.769531 C 130.359375 167.003906 129.195312 166.265625 128.011719 165.558594 C 126.824219 164.851562 125.625 164.171875 124.410156 163.523438 C 123.191406 162.871094 121.957031 162.253906 120.710938 161.664062 C 119.464844 161.074219 118.203125 160.515625 116.925781 159.988281 C 115.652344 159.464844 114.363281 158.96875 113.066406 158.503906 C 111.765625 158.039062 110.457031 157.609375 109.136719 157.207031 C 107.8125 156.808594 106.484375 156.441406 105.144531 156.105469 C 103.808594 155.769531 102.460938 155.46875 101.105469 155.199219 C 99.753906 154.933594 98.394531 154.695312 97.027344 154.496094 C 95.664062 154.292969 94.292969 154.125 92.921875 153.988281 C 91.546875 153.855469 90.171875 153.753906 88.792969 153.683594 C 87.414062 153.617188 86.035156 153.582031 84.65625 153.582031 Z M 84.65625 153.582031 " fill-opacity="1" fill-rule="nonzero"/></g><path fill="#333333" d="M 42.527344 212.585938 L 139.507812 212.585938 L 139.507812 221.003906 L 42.527344 221.003906 Z M 42.527344 229.421875 L 139.507812 229.421875 L 139.507812 237.835938 L 42.527344 237.835938 Z M 42.527344 229.421875 " fill-opacity="1" fill-rule="nonzero"/><path fill="#333333" d="M 55.136719 191.457031 L 72.003906 191.457031 L 72.003906 288.246094 L 55.136719 288.246094 Z M 55.136719 191.457031 " fill-opacity="1" fill-rule="nonzero"/><path fill="#333333" d="M 90.015625 261.070312 L 63.570312 261.070312 L 63.570312 246.339844 L 90.015625 246.339844 C 97.710938 246.339844 104.683594 242.601562 108.21875 236.585938 C 110.355469 232.9375 111.324219 228.859375 111.03125 224.78125 C 110.804688 221.773438 109.914062 218.882812 108.359375 216.1875 C 104.867188 210.128906 97.878906 206.359375 90.121094 206.359375 L 63.570312 206.359375 L 63.570312 191.628906 L 90.121094 191.628906 C 103.144531 191.628906 115.035156 198.230469 121.152344 208.847656 C 123.824219 213.476562 125.367188 218.472656 125.746094 223.710938 C 126.265625 230.765625 124.601562 237.789062 120.949219 244.023438 C 114.785156 254.539062 102.929688 261.070312 90.015625 261.070312 Z M 90.015625 261.070312 " fill-opacity="1" fill-rule="nonzero"/><g clip-path="url(#id2)"><path fill="#c0e7aa" d="M 290 50.339844 C 243.195312 50.339844 205.25 88.285156 205.25 135.089844 C 205.25 181.898438 243.195312 219.839844 290 219.839844 C 336.808594 219.839844 374.75 181.898438 374.75 135.089844 C 374.75 88.285156 336.808594 50.339844 290 50.339844 " fill-opacity="1" fill-rule="nonzero"/></g><g clip-path="url(#id3)"><path fill="#333333" d="M 252.15625 82.398438 L 266.144531 96.386719 L 263.003906 108.101562 L 251.292969 111.242188 L 237.300781 97.253906 C 235.058594 104.789062 236.898438 113.285156 242.851562 119.230469 C 251.5 127.871094 265.503906 127.871094 274.144531 119.230469 C 282.777344 110.589844 282.777344 96.585938 274.144531 87.949219 C 268.179688 82 259.683594 80.15625 252.15625 82.398438 Z M 252.15625 82.398438 " fill-opacity="1" fill-rule="nonzero"/></g><g clip-path="url(#id4)"><path fill="#333333" d="M 282.449219 112.273438 C 281.191406 115.738281 279.183594 118.914062 276.507812 121.59375 C 273.769531 124.324219 270.582031 126.289062 267.164062 127.515625 L 322.945312 185.167969 C 327.675781 189.890625 335.347656 189.890625 340.082031 185.167969 C 344.808594 180.433594 344.808594 172.777344 340.082031 168.046875 Z M 335.816406 180.90625 C 333.691406 183.023438 330.265625 183.023438 328.140625 180.90625 C 326.015625 178.792969 326.015625 175.347656 328.140625 173.234375 C 330.265625 171.121094 333.691406 171.121094 335.816406 173.234375 C 337.925781 175.347656 337.925781 178.792969 335.816406 180.90625 Z M 335.816406 180.90625 " fill-opacity="1" fill-rule="nonzero"/></g></svg>