<svg width="282" height="37" viewBox="0 0 282 37" fill="none" xmlns="http://www.w3.org/2000/svg">
<g filter="url(#filter0_i_20_233)">
<path d="M0.12 36V2.16H9V15.216H22.632V2.16H31.512V36H22.632V22.464H9V36H0.12ZM46.8806 36.528C44.7686 36.528 42.9126 36.032 41.3126 35.04C39.7126 34.016 38.4486 32.544 37.5206 30.624C36.6246 28.704 36.1766 26.432 36.1766 23.808C36.1766 21.152 36.6246 18.88 37.5206 16.992C38.4486 15.072 39.7126 13.616 41.3126 12.624C42.9126 11.6 44.7686 11.088 46.8806 11.088C48.7686 11.088 50.4646 11.536 51.9686 12.432C53.5046 13.328 54.5126 14.496 54.9926 15.936H54.5126L55.0406 11.616H63.2486C63.1526 12.704 63.0566 13.808 62.9606 14.928C62.8966 16.048 62.8646 17.152 62.8646 18.24V36H54.4166L54.3206 31.872H54.8966C54.4166 33.28 53.4086 34.416 51.8726 35.28C50.3686 36.112 48.7046 36.528 46.8806 36.528ZM49.6166 30.192C51.0566 30.192 52.2246 29.696 53.1206 28.704C54.0166 27.68 54.4646 26.048 54.4646 23.808C54.4646 21.568 54.0166 19.952 53.1206 18.96C52.2246 17.936 51.0566 17.424 49.6166 17.424C48.1766 17.424 47.0086 17.936 46.1126 18.96C45.2166 19.952 44.7686 21.568 44.7686 23.808C44.7686 26.048 45.2006 27.68 46.0646 28.704C46.9606 29.696 48.1446 30.192 49.6166 30.192ZM68.1713 36V18.24C68.1713 17.152 68.1393 16.048 68.0753 14.928C68.0113 13.808 67.9153 12.704 67.7873 11.616H76.0433L76.5233 15.84H75.9953C76.7953 14.304 77.9313 13.136 79.4033 12.336C80.8753 11.504 82.5393 11.088 84.3953 11.088C87.2433 11.088 89.3713 11.936 90.7793 13.632C92.2193 15.296 92.9393 17.904 92.9393 21.456V36H84.3953V21.84C84.3953 20.272 84.1233 19.184 83.5793 18.576C83.0353 17.936 82.2513 17.616 81.2273 17.616C79.8833 17.616 78.7953 18.064 77.9633 18.96C77.1313 19.824 76.7153 20.976 76.7153 22.416V36H68.1713ZM107.773 36.528C105.694 36.528 103.838 36.032 102.206 35.04C100.574 34.016 99.2935 32.544 98.3655 30.624C97.4375 28.704 96.9735 26.432 96.9735 23.808C96.9735 21.152 97.4215 18.88 98.3175 16.992C99.2455 15.072 100.526 13.616 102.158 12.624C103.822 11.6 105.694 11.088 107.773 11.088C109.63 11.088 111.31 11.52 112.814 12.384C114.318 13.216 115.326 14.336 115.838 15.744H115.118V0.671997H123.661V36H115.262V31.632H115.886C115.438 33.104 114.446 34.288 112.91 35.184C111.406 36.08 109.694 36.528 107.773 36.528ZM110.51 30.192C111.918 30.192 113.07 29.696 113.966 28.704C114.894 27.68 115.358 26.048 115.358 23.808C115.358 21.568 114.894 19.952 113.966 18.96C113.07 17.936 111.918 17.424 110.51 17.424C109.07 17.424 107.886 17.936 106.958 18.96C106.062 19.952 105.614 21.568 105.614 23.808C105.614 26.048 106.062 27.68 106.958 28.704C107.886 29.696 109.07 30.192 110.51 30.192ZM141.832 36.528C137.416 36.528 133.976 35.392 131.512 33.12C129.08 30.848 127.864 27.728 127.864 23.76C127.864 21.296 128.376 19.104 129.4 17.184C130.424 15.264 131.864 13.776 133.72 12.72C135.576 11.632 137.752 11.088 140.248 11.088C142.712 11.088 144.76 11.632 146.392 12.72C148.056 13.776 149.304 15.248 150.136 17.136C150.968 18.992 151.384 21.152 151.384 23.616V25.44H135.016V21.408H145.096L144.28 22.08C144.28 20.256 143.928 18.912 143.224 18.048C142.552 17.152 141.592 16.704 140.344 16.704C138.904 16.704 137.8 17.248 137.032 18.336C136.296 19.392 135.928 20.992 135.928 23.136V24C135.928 26.144 136.456 27.712 137.512 28.704C138.568 29.696 140.088 30.192 142.072 30.192C143.352 30.192 144.552 30.048 145.672 29.76C146.824 29.472 147.912 29.008 148.936 28.368L151.144 33.936C149.928 34.768 148.52 35.408 146.92 35.856C145.32 36.304 143.624 36.528 141.832 36.528ZM168.317 36.528C163.901 36.528 160.461 35.392 157.997 33.12C155.565 30.848 154.349 27.728 154.349 23.76C154.349 21.296 154.861 19.104 155.885 17.184C156.909 15.264 158.349 13.776 160.205 12.72C162.061 11.632 164.237 11.088 166.733 11.088C169.197 11.088 171.245 11.632 172.877 12.72C174.541 13.776 175.789 15.248 176.621 17.136C177.453 18.992 177.869 21.152 177.869 23.616V25.44H161.501V21.408H171.581L170.765 22.08C170.765 20.256 170.413 18.912 169.709 18.048C169.037 17.152 168.077 16.704 166.829 16.704C165.389 16.704 164.285 17.248 163.517 18.336C162.781 19.392 162.413 20.992 162.413 23.136V24C162.413 26.144 162.941 27.712 163.997 28.704C165.053 29.696 166.573 30.192 168.557 30.192C169.837 30.192 171.037 30.048 172.157 29.76C173.309 29.472 174.397 29.008 175.421 28.368L177.629 33.936C176.413 34.768 175.005 35.408 173.405 35.856C171.805 36.304 170.109 36.528 168.317 36.528ZM181.937 36V18.24C181.937 17.152 181.905 16.048 181.841 14.928C181.777 13.808 181.681 12.704 181.553 11.616H189.809L190.289 15.84H189.761C190.465 14.368 191.505 13.216 192.881 12.384C194.257 11.52 195.873 11.088 197.729 11.088C199.521 11.088 201.041 11.52 202.289 12.384C203.569 13.216 204.497 14.544 205.073 16.368H204.257C205.057 14.704 206.209 13.408 207.713 12.48C209.249 11.552 210.961 11.088 212.849 11.088C215.633 11.088 217.713 11.936 219.089 13.632C220.465 15.296 221.153 17.904 221.153 21.456V36H212.561V21.744C212.561 20.24 212.337 19.184 211.889 18.576C211.441 17.936 210.721 17.616 209.729 17.616C208.481 17.616 207.505 18.064 206.801 18.96C206.129 19.856 205.793 21.088 205.793 22.656V36H197.249V21.744C197.249 20.24 197.009 19.184 196.529 18.576C196.081 17.936 195.377 17.616 194.417 17.616C193.169 17.616 192.193 18.064 191.489 18.96C190.817 19.856 190.481 21.088 190.481 22.656V36H181.937ZM235.881 36.528C233.769 36.528 231.913 36.032 230.313 35.04C228.713 34.016 227.449 32.544 226.521 30.624C225.625 28.704 225.177 26.432 225.177 23.808C225.177 21.152 225.625 18.88 226.521 16.992C227.449 15.072 228.713 13.616 230.313 12.624C231.913 11.6 233.769 11.088 235.881 11.088C237.769 11.088 239.465 11.536 240.969 12.432C242.505 13.328 243.513 14.496 243.993 15.936H243.513L244.041 11.616H252.249C252.153 12.704 252.057 13.808 251.961 14.928C251.897 16.048 251.865 17.152 251.865 18.24V36H243.417L243.321 31.872H243.897C243.417 33.28 242.409 34.416 240.873 35.28C239.369 36.112 237.705 36.528 235.881 36.528ZM238.617 30.192C240.057 30.192 241.225 29.696 242.121 28.704C243.017 27.68 243.465 26.048 243.465 23.808C243.465 21.568 243.017 19.952 242.121 18.96C241.225 17.936 240.057 17.424 238.617 17.424C237.177 17.424 236.009 17.936 235.113 18.96C234.217 19.952 233.769 21.568 233.769 23.808C233.769 26.048 234.201 27.68 235.065 28.704C235.961 29.696 237.145 30.192 238.617 30.192ZM257.171 36V18.24C257.171 17.152 257.139 16.048 257.075 14.928C257.011 13.808 256.915 12.704 256.787 11.616H265.043L265.523 15.84H264.995C265.795 14.304 266.931 13.136 268.403 12.336C269.875 11.504 271.539 11.088 273.395 11.088C276.243 11.088 278.371 11.936 279.779 13.632C281.219 15.296 281.939 17.904 281.939 21.456V36H273.395V21.84C273.395 20.272 273.123 19.184 272.579 18.576C272.035 17.936 271.251 17.616 270.227 17.616C268.883 17.616 267.795 18.064 266.963 18.96C266.131 19.824 265.715 20.976 265.715 22.416V36H257.171Z" fill="white"/>
</g>
<path d="M0.12 36H-0.63V36.75H0.12V36ZM0.12 2.16V1.41H-0.63V2.16H0.12ZM9 2.16H9.75V1.41H9V2.16ZM9 15.216H8.25V15.966H9V15.216ZM22.632 15.216V15.966H23.382V15.216H22.632ZM22.632 2.16V1.41H21.882V2.16H22.632ZM31.512 2.16H32.262V1.41H31.512V2.16ZM31.512 36V36.75H32.262V36H31.512ZM22.632 36H21.882V36.75H22.632V36ZM22.632 22.464H23.382V21.714H22.632V22.464ZM9 22.464V21.714H8.25V22.464H9ZM9 36V36.75H9.75V36H9ZM0.87 36V2.16H-0.63V36H0.87ZM0.12 2.91H9V1.41H0.12V2.91ZM8.25 2.16V15.216H9.75V2.16H8.25ZM9 15.966H22.632V14.466H9V15.966ZM23.382 15.216V2.16H21.882V15.216H23.382ZM22.632 2.91H31.512V1.41H22.632V2.91ZM30.762 2.16V36H32.262V2.16H30.762ZM31.512 35.25H22.632V36.75H31.512V35.25ZM23.382 36V22.464H21.882V36H23.382ZM22.632 21.714H9V23.214H22.632V21.714ZM8.25 22.464V36H9.75V22.464H8.25ZM9 35.25H0.12V36.75H9V35.25ZM41.3126 35.04L40.9083 35.6718L40.9174 35.6774L41.3126 35.04ZM37.5206 30.624L36.8409 30.9412L36.8454 30.9504L37.5206 30.624ZM37.5206 16.992L36.8453 16.6656L36.8431 16.6704L37.5206 16.992ZM41.3126 12.624L41.7079 13.2615L41.7169 13.2557L41.3126 12.624ZM51.9686 12.432L51.5848 13.0764L51.5907 13.0798L51.9686 12.432ZM54.9926 15.936V16.686H56.0332L55.7041 15.6988L54.9926 15.936ZM54.5126 15.936L53.7682 15.845L53.6654 16.686H54.5126V15.936ZM55.0406 11.616V10.866H54.3767L54.2962 11.525L55.0406 11.616ZM63.2486 11.616L63.9957 11.6819L64.0677 10.866H63.2486V11.616ZM62.9606 14.928L62.2134 14.8639L62.2125 14.8746L62.2118 14.8852L62.9606 14.928ZM62.8646 36V36.75H63.6146V36H62.8646ZM54.4166 36L53.6668 36.0174L53.6839 36.75H54.4166V36ZM54.3206 31.872V31.122H53.553L53.5708 31.8894L54.3206 31.872ZM54.8966 31.872L55.6065 32.114L55.9447 31.122H54.8966V31.872ZM51.8726 35.28L52.2357 35.9363L52.2403 35.9337L51.8726 35.28ZM53.1206 28.704L53.6773 29.2068L53.6851 29.1979L53.1206 28.704ZM53.1206 18.96L52.5561 19.4539L52.564 19.4627L53.1206 18.96ZM46.1126 18.96L46.6693 19.4628L46.6771 19.4539L46.1126 18.96ZM46.0646 28.704L45.4914 29.1877L45.4996 29.1973L45.508 29.2067L46.0646 28.704ZM46.8806 35.778C44.8908 35.778 43.1751 35.3123 41.7078 34.4026L40.9174 35.6774C42.6501 36.7517 44.6465 37.278 46.8806 37.278V35.778ZM41.7169 34.4083C40.2476 33.4679 39.0711 32.1085 38.1959 30.2976L36.8454 30.9504C37.8261 32.9795 39.1776 34.5641 40.9083 35.6717L41.7169 34.4083ZM38.2003 30.3068C37.3603 28.5069 36.9266 26.3479 36.9266 23.808H35.4266C35.4266 26.5161 35.889 28.9011 36.841 30.9412L38.2003 30.3068ZM36.9266 23.808C36.9266 21.2341 37.361 19.0777 38.1982 17.3136L36.8431 16.6704C35.8883 18.6823 35.4266 21.0699 35.4266 23.808H36.9266ZM38.1959 17.3184C39.0704 15.5091 40.2443 14.1688 41.7078 13.2614L40.9174 11.9866C39.1809 13.0632 37.8269 14.6349 36.8454 16.6656L38.1959 17.3184ZM41.7169 13.2557C43.183 12.3174 44.8954 11.838 46.8806 11.838V10.338C44.6419 10.338 42.6423 10.8826 40.9083 11.9923L41.7169 13.2557ZM46.8806 11.838C48.6445 11.838 50.2059 12.2549 51.5848 13.0763L52.3525 11.7877C50.7233 10.8171 48.8928 10.338 46.8806 10.338V11.838ZM51.5907 13.0798C52.9979 13.9007 53.8684 14.935 54.2811 16.1732L55.7041 15.6988C55.1569 14.057 54.0114 12.7553 52.3465 11.7842L51.5907 13.0798ZM54.9926 15.186H54.5126V16.686H54.9926V15.186ZM55.2571 16.027L55.7851 11.707L54.2962 11.525L53.7682 15.845L55.2571 16.027ZM55.0406 12.366H63.2486V10.866H55.0406V12.366ZM62.5015 11.5501C62.4055 12.6387 62.3094 13.7433 62.2134 14.8639L63.7079 14.9921C63.8038 13.8727 63.8998 12.7693 63.9957 11.6819L62.5015 11.5501ZM62.2118 14.8852C62.1471 16.019 62.1146 17.1373 62.1146 18.24H63.6146C63.6146 17.1667 63.6462 16.077 63.7094 14.9708L62.2118 14.8852ZM62.1146 18.24V36H63.6146V18.24H62.1146ZM62.8646 35.25H54.4166V36.75H62.8646V35.25ZM55.1664 35.9826L55.0704 31.8546L53.5708 31.8894L53.6668 36.0174L55.1664 35.9826ZM54.3206 32.622H54.8966V31.122H54.3206V32.622ZM54.1867 31.63C53.777 32.832 52.9115 33.8351 51.5049 34.6263L52.2403 35.9337C53.9058 34.9969 55.0563 33.728 55.6065 32.114L54.1867 31.63ZM51.5096 34.6237C50.1235 35.3905 48.5857 35.778 46.8806 35.778V37.278C48.8236 37.278 50.6137 36.8335 52.2357 35.9363L51.5096 34.6237ZM49.6166 30.942C51.2504 30.942 52.6271 30.3693 53.6772 29.2067L52.564 28.2013C51.8221 29.0227 50.8629 29.442 49.6166 29.442V30.942ZM53.6851 29.1979C54.7571 27.9726 55.2146 26.1202 55.2146 23.808H53.7146C53.7146 25.9758 53.2761 27.3874 52.5562 28.2101L53.6851 29.1979ZM55.2146 23.808C55.2146 21.4989 54.7584 19.6543 53.6772 18.4573L52.564 19.4627C53.2748 20.2497 53.7146 21.6371 53.7146 23.808H55.2146ZM53.6851 18.4661C52.6375 17.2689 51.2586 16.674 49.6166 16.674V18.174C50.8547 18.174 51.8118 18.6031 52.5562 19.4539L53.6851 18.4661ZM49.6166 16.674C47.9747 16.674 46.5958 17.2689 45.5482 18.4661L46.6771 19.4539C47.4215 18.6031 48.3786 18.174 49.6166 18.174V16.674ZM45.556 18.4573C44.4748 19.6543 44.0186 21.4989 44.0186 23.808H45.5186C45.5186 21.6371 45.9584 20.2497 46.6692 19.4627L45.556 18.4573ZM44.0186 23.808C44.0186 26.1154 44.4583 27.9632 45.4914 29.1877L46.6378 28.2203C45.943 27.3968 45.5186 25.9806 45.5186 23.808H44.0186ZM45.508 29.2067C46.5616 30.3731 47.9564 30.942 49.6166 30.942V29.442C48.3328 29.442 47.3597 29.0189 46.6212 28.2013L45.508 29.2067ZM68.1712 36H67.4212V36.75H68.1712V36ZM68.0752 14.928L67.3265 14.9708L68.0752 14.928ZM67.7872 11.616V10.866H66.9438L67.0424 11.7036L67.7872 11.616ZM76.0433 11.616L76.7885 11.5313L76.7129 10.866H76.0433V11.616ZM76.5233 15.84V16.59H77.3633L77.2685 15.7553L76.5233 15.84ZM75.9952 15.84L75.3301 15.4935L74.759 16.59H75.9952V15.84ZM79.4033 12.336L79.7614 12.9951L79.7723 12.9889L79.4033 12.336ZM90.7793 13.632L90.2022 14.1111L90.2071 14.117L90.2121 14.1228L90.7793 13.632ZM92.9393 36V36.75H93.6893V36H92.9393ZM84.3952 36H83.6452V36.75H84.3952V36ZM83.5793 18.576L83.0078 19.0617L83.014 19.069L83.0203 19.0761L83.5793 18.576ZM77.9632 18.96L78.5036 19.4803L78.5128 19.4703L77.9632 18.96ZM76.7152 36V36.75H77.4652V36H76.7152ZM68.9212 36V18.24H67.4212V36H68.9212ZM68.9212 18.24C68.9212 17.1373 68.8888 16.019 68.824 14.8852L67.3265 14.9708C67.3897 16.077 67.4212 17.1667 67.4212 18.24H68.9212ZM68.824 14.8852C68.7592 13.7506 68.6619 12.6316 68.5321 11.5284L67.0424 11.7036C67.1686 12.7764 67.2633 13.8654 67.3265 14.9708L68.824 14.8852ZM67.7872 12.366H76.0433V10.866H67.7872V12.366ZM75.298 11.7007L75.778 15.9247L77.2685 15.7553L76.7885 11.5313L75.298 11.7007ZM76.5233 15.09H75.9952V16.59H76.5233V15.09ZM76.6604 16.1865C77.3939 14.7781 78.4252 13.7212 79.7614 12.995L79.0451 11.677C77.4373 12.5508 76.1966 13.8299 75.3301 15.4935L76.6604 16.1865ZM79.7723 12.9889C81.1209 12.2266 82.6556 11.838 84.3952 11.838V10.338C82.4229 10.338 80.6296 10.7814 79.0342 11.6831L79.7723 12.9889ZM84.3952 11.838C87.0903 11.838 88.9761 12.6342 90.2022 14.1111L91.3563 13.1529C89.7664 11.2378 87.3962 10.338 84.3952 10.338V11.838ZM90.2121 14.1228C91.4804 15.5884 92.1893 17.9803 92.1893 21.456H93.6893C93.6893 17.8277 92.9581 15.0036 91.3464 13.1412L90.2121 14.1228ZM92.1893 21.456V36H93.6893V21.456H92.1893ZM92.9393 35.25H84.3952V36.75H92.9393V35.25ZM85.1452 36V21.84H83.6452V36H85.1452ZM85.1452 21.84C85.1452 20.2357 84.8772 18.9019 84.1382 18.0759L83.0203 19.0761C83.3693 19.4661 83.6452 20.3083 83.6452 21.84H85.1452ZM84.1507 18.0903C83.4333 17.2462 82.4185 16.866 81.2272 16.866V18.366C82.084 18.366 82.6372 18.6258 83.0078 19.0617L84.1507 18.0903ZM81.2272 16.866C79.6977 16.866 78.4025 17.3848 77.4137 18.4497L78.5128 19.4703C79.188 18.7432 80.0688 18.366 81.2272 18.366V16.866ZM77.423 18.4398C76.4302 19.4707 75.9652 20.8234 75.9652 22.416H77.4652C77.4652 21.1286 77.8323 20.1773 78.5035 19.4802L77.423 18.4398ZM75.9652 22.416V36H77.4652V22.416H75.9652ZM76.7152 35.25H68.1712V36.75H76.7152V35.25ZM102.205 35.04L101.807 35.6754L101.816 35.6809L102.205 35.04ZM98.3655 30.624L99.0408 30.2976L98.3655 30.624ZM98.3175 16.992L97.6422 16.6656L97.6399 16.6704L98.3175 16.992ZM102.158 12.624L102.547 13.2649L102.551 13.2627L102.158 12.624ZM112.813 12.384L112.44 13.0344L112.45 13.0403L112.813 12.384ZM115.838 15.744V16.494H116.908L116.542 15.4877L115.838 15.744ZM115.118 15.744H114.368V16.494H115.118V15.744ZM115.118 0.671997V-0.0780029H114.368V0.671997H115.118ZM123.661 0.671997H124.411V-0.0780029H123.661V0.671997ZM123.661 36V36.75H124.411V36H123.661ZM115.261 36H114.511V36.75H115.261V36ZM115.261 31.632V30.882H114.511V31.632H115.261ZM115.885 31.632L116.603 31.8504L116.898 30.882H115.885V31.632ZM112.91 35.184L112.532 34.5361L112.526 34.5397L112.91 35.184ZM113.965 28.704L113.41 28.2004L113.409 28.2013L113.965 28.704ZM113.965 18.96L113.401 19.4539L113.409 19.4633L113.418 19.4724L113.965 18.96ZM106.958 18.96L106.402 18.4564L106.401 18.4573L106.958 18.96ZM106.958 28.704L106.393 29.1979L106.401 29.2073L106.41 29.2164L106.958 28.704ZM107.773 35.778C105.818 35.778 104.099 35.3134 102.595 34.3991L101.816 35.6809C103.576 36.7506 105.569 37.278 107.773 37.278V35.778ZM102.604 34.4047C101.104 33.4635 99.9142 32.1047 99.0408 30.2976L97.6902 30.9504C98.6728 32.9833 100.043 34.5685 101.807 35.6753L102.604 34.4047ZM99.0408 30.2976C98.172 28.5001 97.7235 26.3445 97.7235 23.808H96.2235C96.2235 26.5195 96.703 28.9079 97.6902 30.9504L99.0408 30.2976ZM97.7235 23.808C97.7235 21.2341 98.1579 19.0777 98.9951 17.3136L97.6399 16.6704C96.6851 18.6823 96.2235 21.0699 96.2235 23.808H97.7235ZM98.9928 17.3184C99.8654 15.5129 101.053 14.1732 102.547 13.2649L101.768 11.9831C99.9983 13.0588 98.6256 14.6311 97.6422 16.6656L98.9928 17.3184ZM102.551 13.2627C104.089 12.3162 105.823 11.838 107.773 11.838V10.338C105.564 10.338 103.554 10.8838 101.764 11.9853L102.551 13.2627ZM107.773 11.838C109.508 11.838 111.058 12.2402 112.44 13.0343L113.187 11.7337C111.561 10.7998 109.751 10.338 107.773 10.338V11.838ZM112.45 13.0403C113.821 13.7983 114.692 14.7874 115.133 16.0003L116.542 15.4877C115.959 13.8846 114.814 12.6337 113.177 11.7277L112.45 13.0403ZM115.838 14.994H115.118V16.494H115.838V14.994ZM115.868 15.744V0.671997H114.368V15.744H115.868ZM115.118 1.422H123.661V-0.0780029H115.118V1.422ZM122.911 0.671997V36H124.411V0.671997H122.911ZM123.661 35.25H115.261V36.75H123.661V35.25ZM116.011 36V31.632H114.511V36H116.011ZM115.261 32.382H115.885V30.882H115.261V32.382ZM115.168 31.4136C114.784 32.6768 113.932 33.7195 112.532 34.5362L113.287 35.8318C114.959 34.8565 116.091 33.5312 116.603 31.8504L115.168 31.4136ZM112.526 34.5397C111.149 35.3599 109.572 35.778 107.773 35.778V37.278C109.815 37.278 111.662 36.8001 113.293 35.8283L112.526 34.5397ZM110.509 30.942C112.117 30.942 113.476 30.3654 114.522 29.2067L113.409 28.2013C112.663 29.0266 111.718 29.442 110.509 29.442V30.942ZM114.521 29.2076C115.632 27.982 116.107 26.1251 116.107 23.808H114.607C114.607 25.9709 114.155 27.378 113.41 28.2004L114.521 29.2076ZM116.107 23.808C116.107 21.4939 115.633 19.6449 114.513 18.4476L113.418 19.4724C114.154 20.2591 114.607 21.6421 114.607 23.808H116.107ZM114.53 18.4661C113.486 17.273 112.125 16.674 110.509 16.674V18.174C111.71 18.174 112.653 18.599 113.401 19.4539L114.53 18.4661ZM110.509 16.674C108.868 16.674 107.479 17.2682 106.402 18.4564L107.513 19.4636C108.292 18.6038 109.271 18.174 110.509 18.174V16.674ZM106.401 18.4573C105.32 19.6543 104.864 21.4989 104.864 23.808H106.364C106.364 21.6371 106.803 20.2497 107.514 19.4627L106.401 18.4573ZM104.864 23.808C104.864 26.1202 105.321 27.9726 106.393 29.1979L107.522 28.2101C106.802 27.3874 106.364 25.9758 106.364 23.808H104.864ZM106.41 29.2164C107.489 30.3699 108.876 30.942 110.509 30.942V29.442C109.263 29.442 108.282 29.0221 107.505 28.1916L106.41 29.2164ZM131.512 33.12L131 33.6681L131.004 33.6714L131.512 33.12ZM129.4 17.184L130.062 17.5369L129.4 17.184ZM133.72 12.72L134.091 13.3719L134.099 13.367L133.72 12.72ZM146.392 12.72L145.976 13.344L145.983 13.3487L145.99 13.3532L146.392 12.72ZM150.136 17.136L149.45 17.4384L149.452 17.4428L150.136 17.136ZM151.384 25.44V26.19H152.134V25.44H151.384ZM135.016 25.44H134.266V26.19H135.016V25.44ZM135.016 21.408V20.658H134.266V21.408H135.016ZM145.096 21.408L145.573 21.9869L147.187 20.658H145.096V21.408ZM144.28 22.08H143.53V23.6692L144.757 22.6589L144.28 22.08ZM143.224 18.048L142.624 18.498L142.633 18.5101L142.643 18.5218L143.224 18.048ZM137.032 18.336L136.419 17.9035L136.417 17.9072L137.032 18.336ZM137.512 28.704L138.026 28.1574L137.512 28.704ZM145.672 29.76L145.49 29.0324L145.485 29.0336L145.672 29.76ZM148.936 28.368L149.633 28.0915L149.302 27.2551L148.539 27.732L148.936 28.368ZM151.144 33.936L151.568 34.555L152.062 34.2166L151.841 33.6595L151.144 33.936ZM141.832 35.778C137.543 35.778 134.307 34.6767 132.021 32.5686L131.004 33.6714C133.646 36.1073 137.289 37.278 141.832 37.278V35.778ZM132.024 32.5719C129.773 30.4689 128.614 27.5635 128.614 23.76H127.114C127.114 27.8925 128.387 31.2271 131 33.6681L132.024 32.5719ZM128.614 23.76C128.614 21.4026 129.103 19.3346 130.062 17.5369L128.738 16.8311C127.649 18.8734 127.114 21.1894 127.114 23.76H128.614ZM130.062 17.5369C131.02 15.7396 132.361 14.3563 134.091 13.3719L133.349 12.0681C131.368 13.1957 129.828 14.7884 128.738 16.8311L130.062 17.5369ZM134.099 13.367C135.823 12.3566 137.864 11.838 140.248 11.838V10.338C137.64 10.338 135.329 10.9074 133.341 12.073L134.099 13.367ZM140.248 11.838C142.602 11.838 144.495 12.357 145.976 13.344L146.808 12.096C145.025 10.907 142.822 10.338 140.248 10.338V11.838ZM145.99 13.3532C147.523 14.3257 148.675 15.6797 149.45 17.4384L150.822 16.8336C149.933 14.8163 148.59 13.2263 146.794 12.0868L145.99 13.3532ZM149.452 17.4428C150.232 19.1841 150.634 21.2358 150.634 23.616H152.134C152.134 21.0682 151.704 18.7999 150.821 16.8292L149.452 17.4428ZM150.634 23.616V25.44H152.134V23.616H150.634ZM151.384 24.69H135.016V26.19H151.384V24.69ZM135.766 25.44V21.408H134.266V25.44H135.766ZM135.016 22.158H145.096V20.658H135.016V22.158ZM144.619 20.8291L143.803 21.5011L144.757 22.6589L145.573 21.9869L144.619 20.8291ZM145.03 22.08C145.03 20.1852 144.669 18.634 143.806 17.5742L142.643 18.5218C143.187 19.19 143.53 20.3268 143.53 22.08H145.03ZM143.824 17.598C142.993 16.4896 141.797 15.954 140.344 15.954V17.454C141.387 17.454 142.111 17.8144 142.624 18.498L143.824 17.598ZM140.344 15.954C138.684 15.954 137.341 16.5981 136.419 17.9035L137.645 18.7685C138.259 17.8979 139.125 17.454 140.344 17.454V15.954ZM136.417 17.9072C135.552 19.1478 135.178 20.9308 135.178 23.136H136.678C136.678 21.0532 137.04 19.6362 137.647 18.7648L136.417 17.9072ZM135.178 23.136V24H136.678V23.136H135.178ZM135.178 24C135.178 26.2514 135.732 28.0607 136.999 29.2506L138.026 28.1574C137.18 27.3633 136.678 26.0366 136.678 24H135.178ZM136.999 29.2506C138.238 30.4151 139.969 30.942 142.072 30.942V29.442C140.207 29.442 138.898 28.9769 138.026 28.1574L136.999 29.2506ZM142.072 30.942C143.408 30.942 144.672 30.7916 145.859 30.4864L145.485 29.0336C144.432 29.3044 143.296 29.442 142.072 29.442V30.942ZM145.854 30.4876C147.084 30.1802 148.244 29.6849 149.334 29.004L148.539 27.732C147.58 28.3311 146.565 28.7638 145.49 29.0324L145.854 30.4876ZM148.239 28.6445L150.447 34.2125L151.841 33.6595L149.633 28.0915L148.239 28.6445ZM150.721 33.317C149.58 34.0973 148.249 34.7051 146.718 35.1338L147.122 36.5782C148.791 36.1109 150.276 35.4387 151.568 34.555L150.721 33.317ZM146.718 35.1338C145.189 35.562 143.561 35.778 141.832 35.778V37.278C143.687 37.278 145.452 37.046 147.122 36.5782L146.718 35.1338ZM157.997 33.12L157.484 33.6681L157.488 33.6714L157.997 33.12ZM155.885 17.184L156.546 17.5369L155.885 17.184ZM160.204 12.72L160.575 13.3719L160.584 13.367L160.204 12.72ZM172.876 12.72L172.46 13.344L172.467 13.3487L172.475 13.3532L172.876 12.72ZM176.62 17.136L175.934 17.4384L175.936 17.4428L176.62 17.136ZM177.868 25.44V26.19H178.618V25.44H177.868ZM161.501 25.44H160.751V26.19H161.501V25.44ZM161.501 21.408V20.658H160.751V21.408H161.501ZM171.581 21.408L172.057 21.9869L173.671 20.658H171.581V21.408ZM170.764 22.08H170.014V23.6692L171.241 22.6589L170.764 22.08ZM169.708 18.048L169.109 18.498L169.118 18.5101L169.127 18.5218L169.708 18.048ZM163.516 18.336L162.904 17.9035L162.901 17.9072L163.516 18.336ZM163.997 28.704L164.51 28.1574L163.997 28.704ZM172.156 29.76L171.975 29.0324L171.97 29.0336L172.156 29.76ZM175.421 28.368L176.118 28.0915L175.786 27.2551L175.023 27.732L175.421 28.368ZM177.628 33.936L178.052 34.555L178.547 34.2166L178.326 33.6595L177.628 33.936ZM168.316 35.778C164.028 35.778 160.791 34.6767 158.505 32.5686L157.488 33.6714C160.13 36.1073 163.773 37.278 168.316 37.278V35.778ZM158.508 32.5719C156.257 30.4689 155.098 27.5635 155.098 23.76H153.598C153.598 27.8925 154.872 31.2271 157.484 33.6681L158.508 32.5719ZM155.098 23.76C155.098 21.4026 155.587 19.3346 156.546 17.5369L155.223 16.8311C154.134 18.8734 153.598 21.1894 153.598 23.76H155.098ZM156.546 17.5369C157.505 15.7396 158.845 14.3563 160.575 13.3719L159.834 12.0681C157.852 13.1957 156.312 14.7884 155.223 16.8311L156.546 17.5369ZM160.584 13.367C162.307 12.3566 164.348 11.838 166.732 11.838V10.338C164.125 10.338 161.814 10.9074 159.825 12.073L160.584 13.367ZM166.732 11.838C169.086 11.838 170.98 12.357 172.46 13.344L173.293 12.096C171.509 10.907 169.307 10.338 166.732 10.338V11.838ZM172.475 13.3532C174.007 14.3257 175.159 15.6797 175.934 17.4384L177.307 16.8336C176.418 14.8163 175.074 13.2263 173.278 12.0868L172.475 13.3532ZM175.936 17.4428C176.717 19.1841 177.118 21.2358 177.118 23.616H178.618C178.618 21.0682 178.188 18.7999 177.305 16.8292L175.936 17.4428ZM177.118 23.616V25.44H178.618V23.616H177.118ZM177.868 24.69H161.501V26.19H177.868V24.69ZM162.251 25.44V21.408H160.751V25.44H162.251ZM161.501 22.158H171.581V20.658H161.501V22.158ZM171.104 20.8291L170.288 21.5011L171.241 22.6589L172.057 21.9869L171.104 20.8291ZM171.514 22.08C171.514 20.1852 171.153 18.634 170.29 17.5742L169.127 18.5218C169.672 19.19 170.014 20.3268 170.014 22.08H171.514ZM170.309 17.598C169.477 16.4896 168.282 15.954 166.829 15.954V17.454C167.871 17.454 168.596 17.8144 169.109 18.498L170.309 17.598ZM166.829 15.954C165.168 15.954 163.825 16.5981 162.904 17.9035L164.129 18.7685C164.744 17.8979 165.609 17.454 166.829 17.454V15.954ZM162.901 17.9072C162.036 19.1478 161.663 20.9308 161.663 23.136H163.163C163.163 21.0532 163.525 19.6362 164.132 18.7648L162.901 17.9072ZM161.663 23.136V24H163.163V23.136H161.663ZM161.663 24C161.663 26.2514 162.216 28.0607 163.483 29.2506L164.51 28.1574C163.665 27.3633 163.163 26.0366 163.163 24H161.663ZM163.483 29.2506C164.723 30.4151 166.453 30.942 168.557 30.942V29.442C166.692 29.442 165.382 28.9769 164.51 28.1574L163.483 29.2506ZM168.557 30.942C169.893 30.942 171.156 30.7916 172.343 30.4864L171.97 29.0336C170.917 29.3044 169.78 29.442 168.557 29.442V30.942ZM172.338 30.4876C173.568 30.1802 174.729 29.6849 175.818 29.004L175.023 27.732C174.064 28.3311 173.049 28.7638 171.975 29.0324L172.338 30.4876ZM174.723 28.6445L176.931 34.2125L178.326 33.6595L176.118 28.0915L174.723 28.6445ZM177.205 33.317C176.065 34.0973 174.733 34.7051 173.202 35.1338L173.607 36.5782C175.276 36.1109 176.76 35.4387 178.052 34.555L177.205 33.317ZM173.202 35.1338C171.673 35.562 170.045 35.778 168.316 35.778V37.278C170.172 37.278 171.936 37.046 173.607 36.5782L173.202 35.1338ZM181.937 36H181.187V36.75H181.937V36ZM181.841 14.928L181.092 14.9708L181.841 14.928ZM181.553 11.616V10.866H180.709L180.808 11.7036L181.553 11.616ZM189.809 11.616L190.554 11.5313L190.478 10.866H189.809V11.616ZM190.289 15.84V16.59H191.129L191.034 15.7553L190.289 15.84ZM189.761 15.84L189.084 15.5164L188.571 16.59H189.761V15.84ZM192.881 12.384L193.269 13.0259L193.28 13.0192L192.881 12.384ZM202.289 12.384L201.862 13.0006L201.871 13.0069L201.88 13.0128L202.289 12.384ZM205.073 16.368V17.118H206.096L205.788 16.1422L205.073 16.368ZM204.257 16.368L203.581 16.043L203.064 17.118H204.257V16.368ZM207.713 12.48L207.325 11.838L207.319 11.8417L207.713 12.48ZM219.089 13.632L218.506 14.1046L218.511 14.1099L219.089 13.632ZM221.153 36V36.75H221.903V36H221.153ZM212.561 36H211.811V36.75H212.561V36ZM211.889 18.576L211.274 19.0061L211.28 19.0136L211.285 19.0209L211.889 18.576ZM206.801 18.96L206.211 18.4966L206.206 18.5033L206.201 18.51L206.801 18.96ZM205.793 36V36.75H206.543V36H205.793ZM197.249 36H196.499V36.75H197.249V36ZM196.529 18.576L195.914 19.0061L195.927 19.0238L195.94 19.0407L196.529 18.576ZM191.489 18.96L190.899 18.4966L190.894 18.5033L190.889 18.51L191.489 18.96ZM190.481 36V36.75H191.231V36H190.481ZM182.687 36V18.24H181.187V36H182.687ZM182.687 18.24C182.687 17.1373 182.654 16.019 182.59 14.8852L181.092 14.9708C181.155 16.077 181.187 17.1667 181.187 18.24H182.687ZM182.59 14.8852C182.525 13.7506 182.428 12.6316 182.298 11.5284L180.808 11.7036C180.934 12.7764 181.029 13.8654 181.092 14.9708L182.59 14.8852ZM181.553 12.366H189.809V10.866H181.553V12.366ZM189.064 11.7007L189.544 15.9247L191.034 15.7553L190.554 11.5313L189.064 11.7007ZM190.289 15.09H189.761V16.59H190.289V15.09ZM190.437 16.1636C191.079 14.8215 192.02 13.781 193.269 13.0258L192.493 11.7422C190.99 12.651 189.85 13.9145 189.084 15.5164L190.437 16.1636ZM193.28 13.0192C194.52 12.2404 195.993 11.838 197.729 11.838V10.338C195.752 10.338 193.994 10.7996 192.482 11.7488L193.28 13.0192ZM197.729 11.838C199.397 11.838 200.761 12.2383 201.862 13.0006L202.716 11.7674C201.321 10.8017 199.645 10.338 197.729 10.338V11.838ZM201.88 13.0128C202.981 13.7281 203.82 14.8926 204.358 16.5938L205.788 16.1422C205.173 14.1954 204.157 12.7039 202.698 11.7552L201.88 13.0128ZM205.073 15.618H204.257V17.118H205.073V15.618ZM204.933 16.693C205.674 15.1521 206.73 13.9675 208.107 13.1183L207.319 11.8417C205.687 12.8485 204.44 14.2558 203.581 16.043L204.933 16.693ZM208.101 13.1219C209.514 12.2684 211.09 11.838 212.849 11.838V10.338C210.832 10.338 208.984 10.8356 207.325 11.8381L208.101 13.1219ZM212.849 11.838C215.474 11.838 217.311 12.6305 218.506 14.1045L219.671 13.1595C218.115 11.2415 215.791 10.338 212.849 10.338V11.838ZM218.511 14.1099C219.724 15.5766 220.403 17.9742 220.403 21.456H221.903C221.903 17.8338 221.206 15.0154 219.667 13.1541L218.511 14.1099ZM220.403 21.456V36H221.903V21.456H220.403ZM221.153 35.25H212.561V36.75H221.153V35.25ZM213.311 36V21.744H211.811V36H213.311ZM213.311 21.744C213.311 20.2127 213.092 18.9446 212.493 18.1311L211.285 19.0209C211.582 19.4234 211.811 20.2673 211.811 21.744H213.311ZM212.503 18.1459C211.877 17.2517 210.892 16.866 209.729 16.866V18.366C210.55 18.366 211.004 18.6203 211.274 19.0061L212.503 18.1459ZM209.729 16.866C208.276 16.866 207.072 17.4008 206.211 18.4966L207.391 19.4234C207.938 18.7272 208.686 18.366 209.729 18.366V16.866ZM206.201 18.51C205.399 19.5787 205.043 20.9891 205.043 22.656H206.543C206.543 21.1869 206.858 20.1333 207.401 19.41L206.201 18.51ZM205.043 22.656V36H206.543V22.656H205.043ZM205.793 35.25H197.249V36.75H205.793V35.25ZM197.999 36V21.744H196.499V36H197.999ZM197.999 21.744C197.999 20.2069 197.763 18.9288 197.118 18.1113L195.94 19.0407C196.255 19.4392 196.499 20.2731 196.499 21.744H197.999ZM197.143 18.1459C196.522 17.2586 195.558 16.866 194.417 16.866V18.366C195.195 18.366 195.64 18.6134 195.914 19.0061L197.143 18.1459ZM194.417 16.866C192.964 16.866 191.76 17.4008 190.899 18.4966L192.079 19.4234C192.626 18.7272 193.374 18.366 194.417 18.366V16.866ZM190.889 18.51C190.087 19.5787 189.731 20.9891 189.731 22.656H191.231C191.231 21.1869 191.546 20.1333 192.089 19.41L190.889 18.51ZM189.731 22.656V36H191.231V22.656H189.731ZM190.481 35.25H181.937V36.75H190.481V35.25ZM230.313 35.04L229.908 35.6718L229.917 35.6774L230.313 35.04ZM226.521 30.624L225.841 30.9412L225.845 30.9504L226.521 30.624ZM226.521 16.992L225.845 16.6656L225.843 16.6704L226.521 16.992ZM230.313 12.624L230.708 13.2615L230.717 13.2557L230.313 12.624ZM240.969 12.432L240.585 13.0764L240.591 13.0798L240.969 12.432ZM243.993 15.936V16.686H245.033L244.704 15.6988L243.993 15.936ZM243.513 15.936L242.768 15.845L242.665 16.686H243.513V15.936ZM244.041 11.616V10.866H243.377L243.296 11.525L244.041 11.616ZM252.249 11.616L252.996 11.6819L253.068 10.866H252.249V11.616ZM251.961 14.928L251.213 14.8639L251.212 14.8746L251.212 14.8852L251.961 14.928ZM251.865 36V36.75H252.615V36H251.865ZM243.417 36L242.667 36.0174L242.684 36.75H243.417V36ZM243.321 31.872V31.122H242.553L242.571 31.8894L243.321 31.872ZM243.897 31.872L244.607 32.114L244.945 31.122H243.897V31.872ZM240.873 35.28L241.236 35.9363L241.24 35.9337L240.873 35.28ZM242.121 28.704L242.677 29.2068L242.685 29.1979L242.121 28.704ZM242.121 18.96L241.556 19.4539L241.564 19.4627L242.121 18.96ZM235.113 18.96L235.669 19.4628L235.677 19.4539L235.113 18.96ZM235.065 28.704L234.491 29.1877L234.5 29.1973L234.508 29.2067L235.065 28.704ZM235.881 35.778C233.891 35.778 232.175 35.3123 230.708 34.4026L229.917 35.6774C231.65 36.7517 233.646 37.278 235.881 37.278V35.778ZM230.717 34.4083C229.248 33.4679 228.071 32.1085 227.196 30.2976L225.845 30.9504C226.826 32.9795 228.178 34.5641 229.908 35.6717L230.717 34.4083ZM227.2 30.3068C226.36 28.5069 225.927 26.3479 225.927 23.808H224.427C224.427 26.5161 224.889 28.9011 225.841 30.9412L227.2 30.3068ZM225.927 23.808C225.927 21.2341 226.361 19.0777 227.198 17.3136L225.843 16.6704C224.888 18.6823 224.427 21.0699 224.427 23.808H225.927ZM227.196 17.3184C228.07 15.5091 229.244 14.1688 230.708 13.2614L229.917 11.9866C228.181 13.0632 226.827 14.6349 225.845 16.6656L227.196 17.3184ZM230.717 13.2557C232.183 12.3174 233.895 11.838 235.881 11.838V10.338C233.642 10.338 231.642 10.8826 229.908 11.9923L230.717 13.2557ZM235.881 11.838C237.644 11.838 239.206 12.2549 240.585 13.0763L241.352 11.7877C239.723 10.8171 237.893 10.338 235.881 10.338V11.838ZM240.591 13.0798C241.998 13.9007 242.868 14.935 243.281 16.1732L244.704 15.6988C244.157 14.057 243.011 12.7553 241.347 11.7842L240.591 13.0798ZM243.993 15.186H243.513V16.686H243.993V15.186ZM244.257 16.027L244.785 11.707L243.296 11.525L242.768 15.845L244.257 16.027ZM244.041 12.366H252.249V10.866H244.041V12.366ZM251.502 11.5501C251.405 12.6387 251.309 13.7433 251.213 14.8639L252.708 14.9921C252.804 13.8727 252.9 12.7693 252.996 11.6819L251.502 11.5501ZM251.212 14.8852C251.147 16.019 251.115 17.1373 251.115 18.24H252.615C252.615 17.1667 252.646 16.077 252.709 14.9708L251.212 14.8852ZM251.115 18.24V36H252.615V18.24H251.115ZM251.865 35.25H243.417V36.75H251.865V35.25ZM244.166 35.9826L244.07 31.8546L242.571 31.8894L242.667 36.0174L244.166 35.9826ZM243.321 32.622H243.897V31.122H243.321V32.622ZM243.187 31.63C242.777 32.832 241.911 33.8351 240.505 34.6263L241.24 35.9337C242.906 34.9969 244.056 33.728 244.607 32.114L243.187 31.63ZM240.51 34.6237C239.124 35.3905 237.586 35.778 235.881 35.778V37.278C237.824 37.278 239.614 36.8335 241.236 35.9363L240.51 34.6237ZM238.617 30.942C240.25 30.942 241.627 30.3693 242.677 29.2067L241.564 28.2013C240.822 29.0227 239.863 29.442 238.617 29.442V30.942ZM242.685 29.1979C243.757 27.9726 244.215 26.1202 244.215 23.808H242.715C242.715 25.9758 242.276 27.3874 241.556 28.2101L242.685 29.1979ZM244.215 23.808C244.215 21.4989 243.758 19.6543 242.677 18.4573L241.564 19.4627C242.275 20.2497 242.715 21.6371 242.715 23.808H244.215ZM242.685 18.4661C241.637 17.2689 240.259 16.674 238.617 16.674V18.174C239.855 18.174 240.812 18.6031 241.556 19.4539L242.685 18.4661ZM238.617 16.674C236.975 16.674 235.596 17.2689 234.548 18.4661L235.677 19.4539C236.421 18.6031 237.379 18.174 238.617 18.174V16.674ZM234.556 18.4573C233.475 19.6543 233.019 21.4989 233.019 23.808H234.519C234.519 21.6371 234.958 20.2497 235.669 19.4627L234.556 18.4573ZM233.019 23.808C233.019 26.1154 233.458 27.9632 234.491 29.1877L235.638 28.2203C234.943 27.3968 234.519 25.9806 234.519 23.808H233.019ZM234.508 29.2067C235.562 30.3731 236.956 30.942 238.617 30.942V29.442C237.333 29.442 236.36 29.0189 235.621 28.2013L234.508 29.2067ZM257.171 36H256.421V36.75H257.171V36ZM257.075 14.928L256.326 14.9708L257.075 14.928ZM256.787 11.616V10.866H255.944L256.042 11.7036L256.787 11.616ZM265.043 11.616L265.788 11.5313L265.713 10.866H265.043V11.616ZM265.523 15.84V16.59H266.363L266.268 15.7553L265.523 15.84ZM264.995 15.84L264.33 15.4935L263.759 16.59H264.995V15.84ZM268.403 12.336L268.761 12.9951L268.772 12.9889L268.403 12.336ZM279.779 13.632L279.202 14.1111L279.207 14.117L279.212 14.1228L279.779 13.632ZM281.939 36V36.75H282.689V36H281.939ZM273.395 36H272.645V36.75H273.395V36ZM272.579 18.576L272.008 19.0617L272.014 19.069L272.02 19.0761L272.579 18.576ZM266.963 18.96L267.504 19.4803L267.513 19.4703L266.963 18.96ZM265.715 36V36.75H266.465V36H265.715ZM257.921 36V18.24H256.421V36H257.921ZM257.921 18.24C257.921 17.1373 257.889 16.019 257.824 14.8852L256.326 14.9708C256.39 16.077 256.421 17.1667 256.421 18.24H257.921ZM257.824 14.8852C257.759 13.7506 257.662 12.6316 257.532 11.5284L256.042 11.7036C256.169 12.7764 256.263 13.8654 256.326 14.9708L257.824 14.8852ZM256.787 12.366H265.043V10.866H256.787V12.366ZM264.298 11.7007L264.778 15.9247L266.268 15.7553L265.788 11.5313L264.298 11.7007ZM265.523 15.09H264.995V16.59H265.523V15.09ZM265.66 16.1865C266.394 14.7781 267.425 13.7212 268.761 12.995L268.045 11.677C266.437 12.5508 265.197 13.8299 264.33 15.4935L265.66 16.1865ZM268.772 12.9889C270.121 12.2266 271.656 11.838 273.395 11.838V10.338C271.423 10.338 269.63 10.7814 268.034 11.6831L268.772 12.9889ZM273.395 11.838C276.09 11.838 277.976 12.6342 279.202 14.1111L280.356 13.1529C278.766 11.2378 276.396 10.338 273.395 10.338V11.838ZM279.212 14.1228C280.48 15.5884 281.189 17.9803 281.189 21.456H282.689C282.689 17.8277 281.958 15.0036 280.346 13.1412L279.212 14.1228ZM281.189 21.456V36H282.689V21.456H281.189ZM281.939 35.25H273.395V36.75H281.939V35.25ZM274.145 36V21.84H272.645V36H274.145ZM274.145 21.84C274.145 20.2357 273.877 18.9019 273.138 18.0759L272.02 19.0761C272.369 19.4661 272.645 20.3083 272.645 21.84H274.145ZM273.151 18.0903C272.433 17.2462 271.419 16.866 270.227 16.866V18.366C271.084 18.366 271.637 18.6258 272.008 19.0617L273.151 18.0903ZM270.227 16.866C268.698 16.866 267.402 17.3848 266.414 18.4497L267.513 19.4703C268.188 18.7432 269.069 18.366 270.227 18.366V16.866ZM266.423 18.4398C265.43 19.4707 264.965 20.8234 264.965 22.416H266.465C266.465 21.1286 266.832 20.1773 267.503 19.4802L266.423 18.4398ZM264.965 22.416V36H266.465V22.416H264.965ZM265.715 35.25H257.171V36.75H265.715V35.25Z" fill="#F4CE46"/>
<defs>
<filter id="filter0_i_20_233" x="0.119995" y="0.671997" width="281.819" height="37.856" filterUnits="userSpaceOnUse" color-interpolation-filters="sRGB">
<feFlood flood-opacity="0" result="BackgroundImageFix"/>
<feBlend mode="normal" in="SourceGraphic" in2="BackgroundImageFix" result="shape"/>
<feColorMatrix in="SourceAlpha" type="matrix" values="0 0 0 0 0 0 0 0 0 0 0 0 0 0 0 0 0 0 127 0" result="hardAlpha"/>
<feOffset dy="2"/>
<feGaussianBlur stdDeviation="1"/>
<feComposite in2="hardAlpha" operator="arithmetic" k2="-1" k3="1"/>
<feColorMatrix type="matrix" values="0 0 0 0 0 0 0 0 0 0 0 0 0 0 0 0 0 0 0.25 0"/>
<feBlend mode="normal" in2="shape" result="effect1_innerShadow_20_233"/>
</filter>
</defs>
</svg>
